# xmcd CD database file
#
# Track frame offsets:
#	150
#	20020
#	41633
#	51028
#	64911
#	79144
#	94871
#	107205
#	125594
#	136058
#	149110
#	155846
#	165213
#	172758
#	188461
#	207365
#	225044
#
# Disc length: 3182 seconds
#
# Revision: 0
# Processed by: cddbd v1.5.1PL2 Copyright (c) Steve Scherf et al.
# Submitted via: CDex 1.51
#
DISCID=e00c6c11
DTITLE=TAMUSIC - #07 東方&keyピアノソロCD Ver2.0
DYEAR=2006
DGENRE=Game
TTITLE0=鳥の詩
TTITLE1=夏影
TTITLE2=朝影
TTITLE3=青空
TTITLE4=空に光る
TTITLE5=月童
TTITLE6=汐
TTITLE7=小さな手のひら
TTITLE8=幽雅に咲かせ、墨染の桜
TTITLE9=上海紅茶館
TTITLE10=亡き王女の為のセプテット
TTITLE11=幽霊楽団
TTITLE12=朝影バイオリン2重奏
TTITLE13=鳥の詩バイオリン2重奏
TTITLE14=上海紅茶館ハープ
TTITLE15=風神少女ライブ音源
TTITLE16=青空バイオリン4重奏
EXTD=YEAR: 2006
EXTT0=
EXTT1=
EXTT2=
EXTT3=
EXTT4=
EXTT5=
EXTT6=
EXTT7=
EXTT8=
EXTT9=
EXTT10=
EXTT11=
EXTT12=
EXTT13=
EXTT14=
EXTT15=
EXTT16=
PLAYORDER=
